<svg width="1085" height="806" viewBox="0 0 1085 806" fill="none" xmlns="http://www.w3.org/2000/svg">
<g clip-path="url(#clip0)">
<path d="M657.82 94H656.144C589.438 94 530.445 129.341 496.511 181.491C462.577 129.341 403.584 94 336.878 94H335.202C285.141 94.4776 237.291 114.717 202.051 150.319C166.81 185.921 147.027 234.009 147 284.134C147 346.378 174.228 434.697 227.319 507.37C328.473 645.847 496.511 767 496.511 767C496.511 767 664.549 645.869 765.68 507.37C818.795 434.697 846 346.378 846 284.134C845.973 234.013 826.192 185.928 790.957 150.327C755.721 114.725 707.877 94.4835 657.82 94V94ZM633.834 518.024C626.237 517.995 618.827 515.667 612.575 511.345C606.324 507.023 601.524 500.91 598.805 493.807H558.925C556.298 493.791 553.743 492.954 551.615 491.413C549.487 489.872 547.892 487.704 547.054 485.212L534.804 448.26L496.042 583.872C495.287 586.482 493.706 588.777 491.538 590.412C489.369 592.046 486.729 592.932 484.015 592.936H483.233C480.4 592.799 477.701 591.693 475.585 589.803C473.469 587.913 472.066 585.353 471.608 582.551L431.661 341.991L402.466 484.34C401.797 487.044 400.242 489.445 398.05 491.161C395.858 492.877 393.155 493.809 390.372 493.807H334.196C332.512 493.878 330.831 493.608 329.254 493.012C327.677 492.416 326.237 491.507 325.02 490.339C323.803 489.171 322.835 487.769 322.174 486.217C321.512 484.664 321.171 482.994 321.171 481.307C321.171 479.619 321.512 477.949 322.174 476.397C322.835 474.845 323.803 473.443 325.02 472.275C326.237 471.107 327.677 470.198 329.254 469.602C330.831 469.006 332.512 468.735 334.196 468.807H380.536L421.892 277.419C422.571 274.59 424.21 272.084 426.53 270.331C428.85 268.577 431.706 267.685 434.61 267.807C437.514 267.928 440.286 269.056 442.451 270.997C444.617 272.938 446.041 275.572 446.482 278.449L487.279 523.844L522.017 402.511C522.741 399.956 524.27 397.703 526.377 396.09C528.484 394.476 531.056 393.588 533.709 393.559H533.955C536.582 393.56 539.142 394.391 541.269 395.934C543.397 397.478 544.983 399.654 545.803 402.153L567.956 468.874H598.313C600.471 462.308 604.4 456.468 609.664 451.996C614.928 447.525 621.324 444.597 628.146 443.535C634.967 442.473 641.949 443.319 648.321 445.98C654.693 448.64 660.206 453.011 664.253 458.611C668.3 464.21 670.724 470.82 671.255 477.712C671.787 484.603 670.407 491.508 667.267 497.663C664.127 503.819 659.35 508.986 653.462 512.595C647.574 516.204 640.805 518.114 633.901 518.114L633.834 518.024Z" fill="#FF6584"/>
<path opacity="0.1" d="M591.533 131.555C532.554 129.513 476.382 110.46 422.744 89.6208C369.105 68.7813 315.977 45.6992 258.374 34.6505C221.348 27.549 179 26.5462 149.174 46.4103C120.459 65.5542 111.182 98.5 106.197 129.112C102.443 152.139 100.237 176.379 110.517 197.939C117.661 212.908 130.337 225.488 139.095 239.818C169.596 289.711 148.035 351.218 114.991 399.934C99.4993 422.78 81.5013 444.604 69.5361 468.898C57.5708 493.193 52.0757 521.088 62.5465 545.948C72.917 570.561 97.6403 589.013 124.423 602.003C178.818 628.394 242.891 635.942 305.415 640.227C443.776 649.69 582.867 645.596 721.593 641.485C772.935 639.963 824.496 638.431 874.999 630.482C903.049 626.079 932.001 619.078 952.368 602.222C978.212 580.772 984.619 544.453 967.295 517.551C938.243 472.435 857.94 461.231 837.609 412.816C826.437 386.16 837.91 356.478 854.158 331.764C889.006 278.735 947.411 232.216 950.491 171.611C952.596 129.987 924.519 88.299 881.105 68.599C835.604 47.96 772.497 50.5581 738.944 84.7255C704.36 119.823 643.613 133.369 591.533 131.555Z" fill="#FF6584"/>
<path d="M103.94 684.07C103.94 684.07 124.94 680.71 137.54 695.55C137.54 695.55 128.3 702.83 108.42 692.75L103.94 684.07Z" fill="#D17483"/>
<path d="M101.69 683.75C101.69 683.75 88.3 700.27 94.87 718.59C94.87 718.59 105.79 714.22 106.98 691.96L101.69 683.75Z" fill="#D17483"/>
<path d="M89.66 656.63C89.66 656.63 98.06 641.23 131.66 662.79C131.66 662.79 127.18 673.15 112.34 672.31C97.5 671.47 93.58 664.75 89.66 656.63Z" fill="#D17483"/>
<path d="M87.49 655.52C87.49 655.52 70.06 653.52 68.37 693.42C68.37 693.42 79.37 695.72 87.27 683.1C95.17 670.48 91.88 663.4 87.49 655.52Z" fill="#D17483"/>
<path d="M77.38 623.7C77.38 623.7 87.18 596.53 122.74 615.86C122.74 615.86 114.62 640.78 81.02 632.94L77.38 623.7Z" fill="#D17483"/>
<path d="M66.38 583.09C66.38 583.09 84.87 555.65 117.63 581.09C117.63 581.09 106.15 606.86 69.18 592.85L66.38 583.09Z" fill="#D17483"/>
<path d="M62.49 544.45C62.49 544.45 84.06 519.25 116.54 544.45C116.54 544.45 96.1 566.57 62.54 550.89L62.49 544.45Z" fill="#D17483"/>
<path d="M59.13 506.97C59.13 506.97 80.98 480.65 112.06 505.57C112.06 505.57 87.42 528.81 59.13 513.13V506.97Z" fill="#D17483"/>
<path d="M61.09 473.61C61.09 473.61 84.09 439.72 113.18 462.68C113.18 462.68 88.54 491.81 61.09 480.05V473.61Z" fill="#D17483"/>
<path d="M66.38 434.68C66.38 434.68 90.75 401.08 119.03 426.84C119.03 426.84 90.19 455.96 66.38 440.84V434.68Z" fill="#D17483"/>
<path d="M74.54 399.89C74.54 399.89 103.38 368.32 128.54 380.89C128.54 380.89 98.48 414.42 73.28 408.26L74.54 399.89Z" fill="#D17483"/>
<path d="M84.62 366.97C84.62 366.97 117.94 328.32 137.26 341.21C137.26 341.21 112.74 371.21 82.26 374.21L84.62 366.97Z" fill="#D17483"/>
<path d="M99.17 328.66C99.17 328.66 128.3 297.08 149.58 304.97C149.58 304.97 124.66 337.74 95.26 338.58L99.17 328.66Z" fill="#D17483"/>
<path d="M112.38 292.88C112.38 292.88 144.58 262.64 158.58 267.96C158.58 267.96 135.34 301.56 110.98 299.6L112.38 292.88Z" fill="#D17483"/>
<path d="M125.22 259.84C125.22 259.84 152.94 223.72 168.06 226.52C168.06 226.52 151.26 258.72 125.22 263.52V259.84Z" fill="#D17483"/>
<path d="M139.2 215.3C139.2 215.3 163.7 187.6 176.93 187.67C176.93 187.67 157.59 224.67 138.19 224.33L139.2 215.3Z" fill="#D17483"/>
<path d="M147.48 185.64L171.14 127.97C171.14 127.97 172.33 180.11 144.47 196.36L147.48 185.64Z" fill="#D17483"/>
<path d="M157.09 122.02C157.09 122.02 161.01 73.86 158.49 69.94C158.49 69.94 175.41 109.94 156.92 143.3L157.09 122.02Z" fill="#D17483"/>
<path d="M76.38 623.05C76.38 623.05 51.84 607.84 35.95 645.05C35.95 645.05 57.79 659.54 79.26 632.54L76.38 623.05Z" fill="#D17483"/>
<path d="M65.63 581.55C65.63 581.55 35.53 567.81 20.92 606.67C20.92 606.67 44.18 622.62 68.37 591.36L65.63 581.55Z" fill="#D17483"/>
<path d="M61.09 546.76C61.09 546.76 39.53 521.56 7.09003 546.76C7.09003 546.76 27.53 568.88 61.09 553.2V546.76Z" fill="#D17483"/>
<path d="M58.38 506.97C58.38 506.97 36.54 480.65 5.45001 505.57C5.45001 505.57 30.1 528.81 58.38 513.13V506.97Z" fill="#D17483"/>
<path d="M61.09 474.56C61.09 474.56 45.77 436.56 12.47 452.93C12.47 452.93 30.47 486.59 59.74 480.86L61.09 474.56Z" fill="#D17483"/>
<path d="M68.38 434.49C68.38 434.49 53.16 395.88 19.38 413.79C19.38 413.79 40.06 449.17 66.88 440.46L68.38 434.49Z" fill="#D17483"/>
<path d="M77.78 400.09C77.78 400.09 71.78 357.76 43.83 353.97C43.83 353.97 49.76 398.61 74.05 407.72L77.78 400.09Z" fill="#D17483"/>
<path d="M85.38 366.97C85.38 366.97 83.04 315.97 59.89 314.2C59.89 314.2 60.67 352.91 82.77 374.2L85.38 366.97Z" fill="#D17483"/>
<path d="M101.57 327.21C101.57 327.21 94.66 284.8 72.57 279.61C72.57 279.61 75.31 320.69 99.39 337.61L101.57 327.21Z" fill="#D17483"/>
<path d="M114.96 293.19C114.96 293.19 114.72 249.01 101.23 242.52C101.23 242.52 92.85 282.52 111.05 298.83L114.96 293.19Z" fill="#D17483"/>
<path d="M126.25 259.35C126.25 259.35 124.38 213.85 110.38 207.44C110.38 207.44 105.59 243.44 124.15 262.33L126.25 259.35Z" fill="#D17483"/>
<path d="M141.15 218.97C141.15 218.97 141.06 181.97 131.09 173.3C131.09 173.3 121.16 213.83 135.94 226.41L141.15 218.97Z" fill="#D17483"/>
<path d="M146.3 183.81L136.6 122.23C136.6 122.23 123.38 172.69 146.77 194.97L146.3 183.81Z" fill="#D17483"/>
<path d="M148.2 122.61C148.2 122.61 123.28 81.21 123.79 76.61C123.79 76.61 126.44 120 157.79 141.61L148.2 122.61Z" fill="#D17483"/>
<path d="M151.12 110.38C151.12 110.38 127.6 51.58 116.96 46.81C116.96 46.81 150.56 63.9 153.08 108.7L151.12 110.38Z" fill="#D17483"/>
<path d="M138.06 224.68L136.46 224.18C156.31 159.45 161.26 118.18 150.4 107.84L151.56 106.62C163.07 117.53 158.38 158.36 138.06 224.68Z" fill="#444053"/>
<path d="M83.38 376.19L81 375.35C83.1 369.42 85.38 363.4 87.76 357.46C108.48 305.83 126.11 257.79 137.43 220.91L139.49 219.91C128.16 256.91 110.84 306.74 90.1 358.44C87.76 364.31 85.5 370.29 83.38 376.19Z" fill="#444053"/>
<path d="M133.49 732.52C133.17 732.16 100.99 695.94 78.57 634.08C65.4221 597.873 58.0978 559.811 56.87 521.31C55.34 473.18 65.43 419.43 82.74 370.62L84.62 372.82C45.78 482.38 61.21 576.27 81.68 632.82C103.87 694.11 135.68 729.95 135.99 730.3L133.49 732.52Z" fill="#444053"/>
<path opacity="0.1" d="M529.83 775.61C776.69 775.61 976.81 757.2 976.81 734.49C976.81 711.78 776.69 693.37 529.83 693.37C282.97 693.37 82.85 711.78 82.85 734.49C82.85 757.2 282.97 775.61 529.83 775.61Z" fill="#965D7B"/>
<path d="M918.99 728.13C917.39 721.76 913.51 721.65 913.51 721.65L913.45 721.01L912.02 705.28C911.965 705.361 911.898 705.432 911.82 705.49L911.74 703.49C911.727 703.112 911.694 702.735 911.64 702.36C913.924 700.699 915.611 698.346 916.45 695.65C915.86 694.9 916.3 695.05 916.3 695.05C916.3 695.05 906.59 685.11 907.56 679.93C908.53 674.75 900.25 669.12 900.25 669.12C900.25 669.12 897.25 659.86 897.25 657.05C897.25 654.24 885.91 635.79 885.91 635.79C885.91 635.79 875.91 612.32 867.13 602.24C858.35 592.16 859.13 586.67 859.13 586.67C858.362 585.605 857.709 584.462 857.18 583.26C856.793 582.428 856.459 581.573 856.18 580.7C857.98 580.47 859.18 580.43 859.18 580.43C859.18 580.43 866.37 579.2 866.69 577.72C867.087 576.05 867.935 574.522 869.14 573.3C870.51 571.83 865.24 543.83 868.04 536.59C870.84 529.35 864.45 496.13 864.45 496.13C864.604 495.123 864.965 494.158 865.511 493.298C866.057 492.437 866.775 491.699 867.62 491.13L871.86 489.46L874.01 488.94L874.3 488.87L874.74 488.76L875.74 488.51L876.03 488.43L876.65 488.26L876.88 488.2L877.88 487.89L878.21 487.78L878.68 487.62L879.04 487.48L879.52 487.29L880.05 487.04L880.36 486.88L880.69 486.69L880.95 486.52C881.086 486.425 881.216 486.321 881.34 486.21L881.54 486.01C881.622 485.928 881.699 485.841 881.77 485.75C881.819 485.687 881.863 485.62 881.9 485.55L881.96 485.47C882.134 485.113 882.207 484.716 882.17 484.321C882.133 483.925 881.987 483.548 881.75 483.23C880.701 481.731 879.418 480.411 877.95 479.32L875.64 475.77C875.634 475.747 875.634 475.723 875.64 475.7C875.64 475.52 875.71 475.32 875.76 475.12C875.927 474.372 875.964 473.601 875.87 472.84V472.84C875.875 472.797 875.875 472.753 875.87 472.71C875.902 472.471 875.918 472.231 875.92 471.99V471.68C875.92 471.45 875.92 471.22 875.87 470.99C875.82 470.76 875.87 470.76 875.87 470.64C875.87 470.52 875.79 470.2 875.74 469.98C875.69 469.76 875.68 469.72 875.64 469.59C875.6 469.46 875.53 469.18 875.46 468.97L875.31 468.56C875.24 468.37 875.16 468.17 875.08 467.98C875 467.79 874.96 467.69 874.89 467.55C874.82 467.41 874.73 467.19 874.64 467.01C874.55 466.83 874.49 466.72 874.42 466.58C874.35 466.44 874.24 466.24 874.14 466.07L873.9 465.65L873.62 465.19L873.35 464.77L873.08 464.36L872.81 463.97C872.72 463.85 872.63 463.72 872.54 463.61L872.28 463.25L872.04 462.94L871.79 462.62L871.58 462.36L871.36 462.09L871.19 461.9L871.01 461.69L870.89 461.55L870.76 461.41L870.69 461.33L870.62 461.26V461.14C870.62 461.08 870.62 461.01 870.62 460.92V460.82C870.62 460.73 870.62 460.63 870.62 460.51V460.4C870.62 460.26 870.62 460.1 870.56 459.93V459.87C870.423 458.832 870.339 457.787 870.31 456.74V456.74C870.338 455.649 870.583 454.575 871.03 453.58C871.165 453.337 871.229 453.062 871.217 452.785C871.205 452.508 871.116 452.24 870.96 452.01C870.989 451.938 871.023 451.868 871.06 451.8C871.75 450.47 870.44 449.33 868.8 448.48C868.8 446.04 867.8 441.09 859.72 440.2C859.72 440.2 854.99 437.01 859.56 431.28C864.13 425.55 856.87 410.89 856.87 410.89C856.87 410.89 854.56 404.89 855.8 402.41C857.04 399.93 854.36 377.87 854.36 377.87C854.36 377.87 854.36 357.52 849.86 348.87C845.36 340.22 842.29 324.69 837.1 322.39C831.91 320.09 827.8 314.53 827.8 314.53L825.38 315.31C824.96 314.69 824.54 314.07 824.14 313.45C824.334 313.397 824.525 313.33 824.71 313.25C825.824 312.749 826.741 311.895 827.32 310.82C827.488 310.518 827.631 310.204 827.75 309.88V309.88C828.158 308.704 828.354 307.465 828.33 306.22C828.241 304.979 828.278 303.733 828.44 302.5C828.85 300.5 830.23 298.9 831.44 297.23C833.867 293.907 835.412 290.022 835.93 285.94C836.421 281.837 835.409 277.694 833.08 274.28C831.9 272.62 830.37 271.15 829.63 269.28C829.29 268.42 829.14 267.5 828.88 266.62C828.087 264.173 826.597 262.011 824.594 260.398C822.59 258.785 820.16 257.792 817.6 257.54C813.35 257.15 809.16 258.77 804.9 258.72C799.96 258.66 794.9 256.4 790.27 258.12C788.198 259.015 786.365 260.385 784.92 262.12C783.796 263.36 782.748 264.665 781.78 266.03C781.21 266.83 780.67 267.64 780.16 268.48V268.55C779.64 269.4 779.16 270.27 778.7 271.16C778.592 271.363 778.567 271.599 778.63 271.82C778.756 272.075 778.969 272.277 779.23 272.39C780.044 272.674 780.797 273.108 781.45 273.67C781.7 273.956 781.971 274.224 782.26 274.47C782.12 274.64 781.97 274.8 781.83 274.98C779.457 278.004 777.803 281.53 776.995 285.288C776.187 289.047 776.245 292.94 777.166 296.673C778.086 300.405 779.844 303.879 782.307 306.831C784.77 309.783 787.873 312.136 791.38 313.71L791.89 314.83C792.854 316.954 793.659 319.147 794.3 321.39L792.12 321.59C792.094 322.271 791.815 322.917 791.338 323.403C790.861 323.89 790.22 324.181 789.54 324.22C786.99 324.49 778.88 327.49 778.88 327.49C778.88 327.49 766.69 333.7 759.34 335.67C751.99 337.64 748.73 335.96 748.73 335.96C748.73 335.96 747.9 341.3 739.58 338.36C731.26 335.42 730.16 338.52 730.16 338.52C730.16 338.52 706.72 337.88 689.65 340.16C672.58 342.44 665.14 340.84 665.14 340.84C665.14 340.84 665.06 341.74 664.97 343.2L663.24 342.2C651.9 336.14 630.99 326.74 628.01 338.2C623.85 354.13 660.38 360.9 660.38 360.9L663.08 360.61L664.85 360.42C665.19 364.84 665.97 368.42 667.6 368.81C668.19 368.96 685.67 368.92 690.27 371.07C694.87 373.22 704.78 370.07 704.78 370.07C704.78 370.07 707.33 369.51 711.18 371.79C715.03 374.07 735.95 374.08 735.95 374.08C735.95 374.08 737.44 374.4 742.79 375.97C748.14 377.54 757.58 376.18 757.58 376.18L779.65 379.03C779.65 379.03 781.22 394.5 779.49 400.12C777.76 405.74 779.15 433.39 779.15 433.39C779.15 433.39 784.15 467.04 782.78 471.03C781.7 474.12 791.28 470.68 795.66 468.97C795.89 469.88 796.18 470.97 796.51 472.2C796.51 472.31 796.66 472.38 796.83 472.42L797.19 472.66C797.35 473.32 797.51 473.96 797.66 474.56L796.47 474.88L798.04 475.93C798.214 476.565 798.425 477.189 798.67 477.8C799.97 480.8 790.48 486.29 790.48 486.29C790.48 486.29 764.27 500.62 756.4 507.29C756.4 507.29 750.25 509.29 749.77 511.2C749.29 513.11 743.77 512.45 743.77 512.45C743.77 512.45 742.99 514.52 742.36 516.6C741.73 518.68 738.36 521.89 738.36 521.89C738.36 521.89 730.57 523.11 729.47 527.25C728.686 530.453 728.089 533.698 727.68 536.97L718.93 552.89C718.93 552.89 695.07 570.67 692.57 577.47L675.68 588.79C675.68 588.79 672.9 594.99 667.97 595.21C663.04 595.43 654.53 604.21 654.53 604.21C654.53 604.21 657.03 605.21 660.7 606.91C660.48 607.25 660.27 607.59 660.09 607.91C659.412 609.193 658.91 610.562 658.6 611.98C658.6 611.98 647.6 618.66 639.42 615.86C634.8 614.28 625.69 611.55 619.1 611.22C614.03 610.97 610.43 612.14 611.48 616.35C613.27 623.62 631.32 641.92 640.22 650.6C641.63 651.973 643.123 653.259 644.69 654.45C646.762 656.042 648.967 657.454 651.28 658.67C652.633 659.381 654.021 660.021 655.44 660.59C656.965 661.206 658.532 661.711 660.13 662.1C663.27 662.83 666.13 662.8 667.74 661.1C672.9 655.82 670.74 652.1 670.74 652.1L671.32 651.67L685.54 641.03L688.76 638.28L689.65 637.52C689.166 641.426 687.486 645.086 684.84 648C688.384 645.938 692.11 644.204 695.97 642.82C700.97 641.26 704.05 631.82 704.05 631.82C704.05 631.82 706.78 629.04 711.63 624.06C716.48 619.08 717.38 606.33 717.38 606.33C717.38 606.33 742.27 590.49 752.38 572.22C752.38 572.22 754.21 569.72 757.38 566.05C760.55 562.38 760.66 556.29 760.66 556.29C760.66 556.29 761.13 554.52 765.38 549.98C769.63 545.44 769.08 542.6 769.08 542.6C769.08 542.6 771.08 539.81 778.52 540.37C785.96 540.93 803.44 532.11 803.44 532.11C803.44 532.11 803.44 532.92 803.6 534.32C802.08 537.82 801.08 540.25 801.08 540.25C801.08 540.25 816.32 601.08 810.21 610.64C807.04 615.64 815.78 611.84 824.94 607.07C825.41 607.64 825.94 608.24 826.52 608.88C828.69 611.219 831.001 613.424 833.44 615.48L833.74 615.74C833.74 615.74 852.3 644.38 855.24 647.74C858.18 651.1 856.24 660.98 856.24 660.98C856.24 660.98 861.42 695.51 868.5 701.56C869.975 702.678 871.623 703.547 873.38 704.13C873.26 708.43 877.15 711.96 877.15 711.96C877.15 711.96 877.07 723.4 871.09 728.24C867.71 730.99 861.34 736.57 857.99 741.38C855.42 745.09 854.62 748.38 858.32 749.54C864.71 751.61 887.15 746.61 897.96 743.98C903.283 742.718 908.303 740.413 912.73 737.2C916.47 734.45 919.73 731.12 918.99 728.13ZM672.82 613.69C673.44 614.1 674.05 614.52 674.66 614.95L673.66 615.75L673.25 616.07C673.25 615.86 673.19 615.63 673.15 615.4C673.04 614.85 672.94 614.28 672.82 613.69Z" fill="url(#paint0_linear)"/>
<path d="M675.65 361.97L664.38 363.16L661.72 363.45C661.72 363.45 625.72 356.74 629.82 341C632.76 329.61 653.38 338.93 664.57 345C668.85 347.31 671.74 349.13 671.74 349.13L675.65 361.97Z" fill="#D17483"/>
<path d="M702.13 628.05L689.79 638.66L686.61 641.39L679.21 643.63L660.88 627.45L674.5 616.59L674.9 616.26L685.92 607.48L702.13 628.05Z" fill="#DCE6F2"/>
<path d="M898.16 692.72L880.74 693.53L885.52 714.82L892.05 717.07L910.24 715.55L909.75 703.33C909.69 701.871 909.342 700.438 908.726 699.114C908.11 697.79 907.238 696.601 906.161 695.615C905.084 694.629 903.823 693.866 902.45 693.369C901.076 692.872 899.619 692.651 898.16 692.72V692.72Z" fill="#DCE6F2"/>
<path opacity="0.1" d="M674.38 615.97C670.284 613.181 665.981 610.707 661.51 608.57C662.075 607.343 662.907 606.257 663.945 605.392C664.983 604.527 666.201 603.904 667.51 603.57C671.45 602.74 673.46 610.37 674.38 615.97Z" fill="black"/>
<path opacity="0.1" d="M689.78 638.66C690.53 629.77 683.07 622.02 674.9 616.27L685.9 607.48L702.1 628.05L689.78 638.66Z" fill="black"/>
<path d="M914.38 695.55C909.27 712.42 874.12 707.35 867.14 701.35C860.16 695.35 855.04 661.09 855.04 661.09C855.04 661.09 856.96 651.24 854.04 647.95C851.12 644.66 832.84 616.25 832.84 616.25C832.84 616.25 832.64 616.08 832.54 616C830.131 613.959 827.85 611.771 825.71 609.45C820.08 603.28 819.96 600.3 819.96 600.3C819.96 600.3 817.96 588.62 811.07 572.76C806.07 561.06 804 545.16 803.29 537.61C803.04 534.92 802.95 533.29 802.95 533.29C802.95 533.29 785.73 542.03 778.37 541.48C771.01 540.93 769.05 543.7 769.05 543.7C769.05 543.7 769.6 546.51 765.41 551.02C761.22 555.53 760.75 557.28 760.75 557.28C760.75 557.28 760.66 563.33 757.51 566.96C754.36 570.59 752.56 573.08 752.56 573.08C742.56 591.21 718.02 606.92 718.02 606.92C718.02 606.92 717.11 619.58 712.31 624.52C707.51 629.46 704.83 632.22 704.83 632.22C704.83 632.22 701.75 641.61 696.83 643.16C693.012 644.529 689.33 646.25 685.83 648.3C706.08 623.99 655.96 604.83 655.96 604.83C655.96 604.83 664.34 596.11 669.21 595.89C674.08 595.67 676.82 589.52 676.82 589.52L693.48 578.27C695.94 571.52 719.48 553.89 719.48 553.89L728.11 538.1C728.516 534.882 729.107 531.69 729.88 528.54C730.96 524.44 738.65 523.22 738.65 523.22C738.65 523.22 741.94 520.02 742.55 517.97C743.16 515.92 743.94 513.86 743.94 513.86C743.94 513.86 749.38 514.54 749.85 512.62C750.32 510.7 756.39 508.74 756.39 508.74C764.16 502.07 790.01 487.86 790.01 487.86C790.01 487.86 799.37 482.4 798.09 479.43C797.843 478.827 797.632 478.209 797.46 477.58C797.46 477.52 797.46 477.47 797.46 477.42C797.347 477.04 797.237 476.64 797.13 476.22C795.95 471.65 794.65 464.64 794.65 464.64C794.65 464.64 840.14 438.19 855.07 444.9C859.43 446.85 861.97 451.77 863.3 458.05C865.43 468.1 864.46 481.62 862.83 492C862.201 496.272 861.289 500.498 860.1 504.65C856.54 516.1 855.85 533.03 855.85 533.03C855.85 533.03 855.38 565.3 854.23 573.24C853.759 576.935 854.349 580.688 855.93 584.06C856.454 585.251 857.1 586.384 857.86 587.44C857.86 587.44 857.04 592.88 865.74 602.89C874.44 612.9 884.26 636.16 884.26 636.16C884.26 636.16 895.49 654.45 895.45 657.26C895.41 660.07 898.37 669.26 898.37 669.26C898.37 669.26 906.54 674.82 905.58 679.97C904.62 685.12 914.2 694.97 914.2 694.97C914.2 694.97 913.8 694.8 914.38 695.55Z" fill="#BDD2E8"/>
<path opacity="0.1" d="M798.05 487.68C798.05 487.68 807.85 492.39 808.65 498.01C809.45 503.63 798.05 487.68 798.05 487.68Z" fill="black"/>
<path opacity="0.1" d="M760.59 520L765.95 526.27L763.17 514.88L757.28 514.5L760.59 520Z" fill="black"/>
<path opacity="0.1" d="M754.38 533.32C754.96 533.77 761.53 548.46 763.29 548.63C765.05 548.8 754.38 533.32 754.38 533.32Z" fill="black"/>
<path opacity="0.1" d="M862.87 491.97C862.241 496.242 861.329 500.468 860.14 504.62C856.58 516.07 855.89 533 855.89 533C855.89 533 855.42 565.27 854.27 573.21C853.799 576.905 854.389 580.658 855.97 584.03C852.97 584.32 847.4 585.19 843.6 587.64C838.25 591.1 841.35 600.58 841.35 600.58C841.35 600.58 833.64 605.22 825.74 609.42C820.11 603.25 819.99 600.27 819.99 600.27C819.99 600.27 817.99 588.59 811.1 572.73C806.1 561.03 804.03 545.13 803.32 537.58C806.32 530.58 811.27 519.8 814.6 515.15C818.13 510.22 813.92 495.3 810.98 486.57L810.17 486.02L800.5 479.53L797.56 477.53L796.02 476.53L797.19 476.21L863.38 458.05C865.47 468.1 864.5 481.62 862.87 491.97Z" fill="black"/>
<path d="M796.04 473.89L800.52 476.89L810.18 483.38L811 483.93C813.94 492.66 818.15 507.58 814.61 512.51C809.5 519.66 800.61 541.35 800.61 541.35C800.61 541.35 815.61 601.69 809.61 611.18C803.61 620.67 841.38 597.97 841.38 597.97C841.38 597.97 838.29 588.49 843.64 585.03C848.99 581.57 857.99 581.26 857.99 581.26C857.99 581.26 865.08 580.04 865.4 578.57C865.787 576.914 866.624 575.398 867.82 574.19C869.16 572.73 863.97 544.95 866.73 537.77C869.49 530.59 863.18 497.63 863.18 497.63C863.328 496.624 863.683 495.66 864.224 494.799C864.764 493.938 865.478 493.2 866.32 492.63C867.11 492.085 867.981 491.667 868.9 491.39L869.47 491.23C869.81 491.13 870.17 491.04 870.47 490.97C874.77 489.9 879.47 488.97 880.47 486.97L879.47 485.45L874.2 477.31C874.092 476.515 874.143 475.706 874.35 474.93C874.35 474.77 874.41 474.6 874.43 474.44C875.2 469.25 869.22 462.95 869.22 462.95C868.955 461.47 868.801 459.973 868.76 458.47V458.42C868.637 456.832 868.855 455.236 869.4 453.74L796.04 473.89Z" fill="#653C5B"/>
<path opacity="0.1" d="M812.89 485.39C812.37 485.28 845.15 486.45 855.28 499.39C855.28 499.42 855.64 494.71 812.89 485.39Z" fill="black"/>
<path opacity="0.1" d="M838.73 506.97C838.73 506.97 845.27 553.97 843.82 562.16C842.37 570.35 851.44 565.07 851.44 565.07C851.44 565.07 860.69 496.85 838.73 506.97Z" fill="black"/>
<path d="M869.47 491.23L868.9 491.39C849.19 487.27 826.4 484.06 810.38 482.1C809.38 479.23 808.66 477.39 808.66 477.39L796.6 474.05L796.27 472.89C795.69 470.8 795.21 468.89 794.93 467.79L794.66 466.72C794.66 466.72 802.66 463.13 813.99 458.82C817.76 457.37 821.9 455.82 826.23 454.36L862.87 448.56C864.207 448.904 865.512 449.362 866.77 449.93C868.64 450.8 870.34 452.04 869.57 453.52C868.06 456.44 869.3 462.94 869.3 462.94C869.3 462.94 875.68 469.66 874.43 474.94C873.18 480.22 878.02 480.89 880.32 484.75C882.62 488.61 875.38 489.69 869.47 491.23Z" fill="#653C5B"/>
<path d="M835.82 332.76C835.82 332.76 787.72 336.62 793.24 332.28C796 330.11 794.1 323.65 791.5 317.74C789.776 313.89 787.823 310.146 785.65 306.53C785.65 306.53 822.21 295.97 818.29 301.97C817.13 303.74 818.18 307.15 820.29 311.08C825.18 320.46 835.82 332.76 835.82 332.76Z" fill="#D17483"/>
<path opacity="0.1" d="M820.26 311.11C819.26 312.3 816.67 310.88 815.42 311.86C811.05 315.28 806.91 319.81 800.94 319.72C797.694 319.67 794.488 318.991 791.5 317.72C789.776 313.87 787.823 310.126 785.65 306.51C785.65 306.51 822.21 295.97 818.29 301.97C817.13 303.77 818.18 307.18 820.26 311.11Z" fill="black"/>
<path d="M826.51 293.97C826.438 298.954 824.89 303.804 822.062 307.908C819.233 312.012 815.251 315.185 810.619 317.026C805.987 318.867 800.913 319.292 796.039 318.249C791.166 317.206 786.71 314.742 783.237 311.166C779.764 307.591 777.429 303.067 776.528 298.164C775.627 293.262 776.199 288.203 778.173 283.626C780.148 279.05 783.435 275.161 787.619 272.453C791.803 269.744 796.696 268.337 801.68 268.41C804.992 268.446 808.264 269.138 811.308 270.444C814.352 271.751 817.107 273.646 819.415 276.022C821.723 278.398 823.538 281.207 824.756 284.287C825.973 287.367 826.57 290.658 826.51 293.97V293.97Z" fill="#D17483"/>
<path opacity="0.1" d="M867.21 454.21C863.248 454.26 859.294 453.844 855.43 452.97C849.26 451.55 844.03 457.08 844.03 457.08C844.03 457.08 832.03 461.77 826.58 460.81C821.13 459.85 797.23 472.46 797.23 472.46L796.23 472.85C795.65 470.76 795.17 468.85 794.89 467.75L794.62 466.68C794.62 466.68 802.62 463.09 813.95 458.78C817.72 457.33 821.86 455.78 826.19 454.32L862.83 448.52C864.167 448.864 865.472 449.322 866.73 449.89C867.27 451.262 867.436 452.753 867.21 454.21V454.21Z" fill="black"/>
<path opacity="0.1" d="M675.65 361.97L664.38 363.16C664.051 357.092 664.114 351.01 664.57 344.95C668.85 347.26 671.74 349.08 671.74 349.08L675.65 361.97Z" fill="black"/>
<path d="M826.91 317.3C826.91 317.3 819.8 319.55 815.8 321.12C811.8 322.69 791.73 324.45 791.73 324.45C791.709 325.125 791.437 325.767 790.967 326.252C790.497 326.736 789.864 327.028 789.19 327.07C786.68 327.32 778.68 330.3 778.68 330.3C778.68 330.3 766.68 336.46 759.4 338.42C752.12 340.38 748.93 338.71 748.93 338.71C748.93 338.71 748.12 344 739.93 341.08C731.74 338.16 730.64 341.24 730.64 341.24C730.64 341.24 707.51 340.61 690.64 342.87C673.77 345.13 666.46 343.55 666.46 343.55C666.46 343.55 664.27 370.07 668.86 371.29C669.44 371.45 686.69 371.4 691.22 373.53C695.75 375.66 705.53 372.53 705.53 372.53C705.53 372.53 708.05 371.98 711.85 374.25C715.65 376.52 736.28 376.52 736.28 376.52C736.28 376.52 737.75 376.83 743.03 378.39C748.31 379.95 757.61 378.6 757.61 378.6L779.38 381.45C779.38 381.45 780.93 396.8 779.23 402.37C777.53 407.94 778.89 435.37 778.89 435.37C778.89 435.37 783.89 468.75 782.48 472.71C781.07 476.67 797.25 469.83 797.25 469.83C797.25 469.83 821.17 457.21 826.6 458.17C832.03 459.13 844.05 454.45 844.05 454.45C844.05 454.45 849.29 448.92 855.46 450.34C859.322 451.204 863.273 451.607 867.23 451.54C867.23 451.54 868.97 443.17 858.38 441.98C858.38 441.98 853.71 438.82 858.21 433.14C862.71 427.46 855.58 412.97 855.58 412.97C855.58 412.97 853.31 407.04 854.52 404.55C855.73 402.06 853.11 380.22 853.11 380.22C853.11 380.22 853.11 360.03 848.67 351.41C844.23 342.79 841.2 327.41 836.08 325.15C830.96 322.89 826.91 317.3 826.91 317.3Z" fill="#DCE6F2"/>
<path opacity="0.1" d="M800.13 384.97C800.13 384.97 831.32 398.84 839.7 410.02C848.08 421.2 800.13 384.97 800.13 384.97Z" fill="black"/>
<path opacity="0.1" d="M812.46 408.75C812.46 408.75 850.16 430.67 847.58 436.23C845 441.79 812.46 408.75 812.46 408.75Z" fill="black"/>
<path opacity="0.1" d="M818.62 430.8C818.62 430.8 832.25 436.31 834.71 439.44C837.17 442.57 818.62 430.8 818.62 430.8Z" fill="black"/>
<path opacity="0.1" d="M756.2 345.3C756.2 345.3 785.01 360.75 780.06 367.02C775.11 373.29 756.2 345.3 756.2 345.3Z" fill="black"/>
<path opacity="0.1" d="M744.7 356.19C744.7 356.19 749.4 367.19 749.52 369.08C749.64 370.97 740.84 357.75 744.7 356.19Z" fill="black"/>
<path opacity="0.1" d="M725.38 359.15C725.38 359.74 740.38 368.94 734.19 371.36C728 373.78 725.38 359.15 725.38 359.15Z" fill="black"/>
<path opacity="0.1" d="M736.79 544.56C737.23 545.15 738.79 550.92 743.59 553.5C748.39 556.08 736.79 544.56 736.79 544.56Z" fill="black"/>
<path opacity="0.1" d="M691.8 588.26C691.73 593.12 690.91 608.59 694.87 610.26C698.83 611.93 691.8 588.26 691.8 588.26Z" fill="black"/>
<path opacity="0.1" d="M702.8 601.97C702.8 601.97 711.86 617.28 708.73 619.89C705.6 622.5 702 616.25 702 616.25L702.8 601.97Z" fill="black"/>
<path opacity="0.1" d="M864.13 635.28C867.812 635.991 871.562 636.293 875.31 636.18C881.38 635.97 864.13 635.28 864.13 635.28Z" fill="black"/>
<path opacity="0.1" d="M859.38 627.84C859.38 627.84 870.55 629.92 874.56 627.77C878.57 625.62 859.38 627.84 859.38 627.84Z" fill="black"/>
<path opacity="0.1" d="M854.98 615.97C854.98 615.97 866.16 616.87 868.43 613.07C870.7 609.27 854.98 615.97 854.98 615.97Z" fill="black"/>
<path opacity="0.1" d="M851.83 609.75C851.83 609.75 862.56 611.53 864.36 609.05C866.16 606.57 851.83 609.75 851.83 609.75Z" fill="black"/>
<path opacity="0.1" d="M841.38 587.2C841.38 587.2 852.94 592.67 854.22 595.79C855.5 598.91 841.38 587.2 841.38 587.2Z" fill="black"/>
<path opacity="0.1" d="M826.51 293.97C826.461 297.738 825.564 301.446 823.887 304.82C822.209 308.193 819.794 311.146 816.82 313.46C816.75 313.33 816.69 313.2 816.63 313.07C815.53 310.72 815.25 308.07 814.23 305.73C813.932 304.838 813.292 304.1 812.45 303.68C810.83 303.05 809.22 304.53 808.15 305.86C807.08 307.19 805.49 308.69 803.86 308.1C802.956 307.667 802.244 306.916 801.86 305.99C800.19 302.99 798.46 299.82 798.35 296.4C798.47 294.716 798.49 293.026 798.41 291.34C797.98 288.4 795.77 285.93 793.23 284.27C790.578 282.743 787.821 281.407 784.98 280.27C783.694 279.728 782.511 278.971 781.48 278.03C784.739 273.889 789.214 270.874 794.275 269.409C799.336 267.944 804.73 268.102 809.697 269.862C814.663 271.621 818.954 274.893 821.964 279.217C824.975 283.542 826.554 288.701 826.48 293.97H826.51Z" fill="black"/>
<path d="M778.38 274.29C777.77 275.71 780.09 275.58 781.1 276.78C782.195 277.926 783.521 278.826 784.99 279.42C787.828 280.563 790.585 281.899 793.24 283.42C795.79 285.09 797.99 287.55 798.42 290.5C798.498 292.183 798.482 293.869 798.37 295.55C798.48 298.98 800.2 302.13 801.87 305.15C802.263 306.069 802.973 306.818 803.87 307.26C805.51 307.84 807.08 306.35 808.16 305.02C809.24 303.69 810.85 302.21 812.47 302.83C813.307 303.253 813.943 303.99 814.24 304.88C815.24 307.25 815.54 309.88 816.64 312.23C817.74 314.58 820.1 316.7 822.74 316.35C823.53 316.209 824.277 315.888 824.923 315.413C825.57 314.938 826.099 314.321 826.47 313.61C827.185 312.203 827.529 310.637 827.47 309.06C827.381 307.829 827.418 306.593 827.58 305.37C827.99 303.37 829.34 301.79 830.5 300.14C832.884 296.846 834.401 293.005 834.91 288.97C835.39 284.904 834.393 280.802 832.1 277.41C830.94 275.76 829.42 274.3 828.69 272.41C828.36 271.56 828.21 270.65 827.95 269.77C827.173 267.349 825.706 265.207 823.729 263.608C821.752 262.009 819.35 261.023 816.82 260.77C812.64 260.38 808.5 261.99 804.3 261.94C799.43 261.89 794.4 259.64 789.86 261.35C787.811 262.247 786.005 263.618 784.59 265.35C782.133 268.057 780.054 271.085 778.41 274.35" fill="#653C5B"/>
<path d="M672.58 651.97L672 652.4C672 652.4 674.16 656.12 669.07 661.4C666.68 663.85 661.63 662.73 656.94 660.86C651.337 658.575 646.24 655.208 641.94 650.95C633.17 642.34 615.36 624.19 613.59 616.95C612.59 612.77 616.11 611.61 621.11 611.86C627.61 612.19 636.59 614.86 641.11 616.47C649.17 619.24 660.02 612.62 660.02 612.62C660.333 611.228 660.827 609.883 661.49 608.62C662.055 607.393 662.887 606.307 663.925 605.442C664.963 604.577 666.181 603.955 667.49 603.62C671.39 602.83 673.4 610.46 674.33 616.01C674.33 616.23 674.4 616.46 674.44 616.68C674.88 619.45 675.05 621.56 675.05 621.56C681.98 621.08 684.93 631.14 684.56 636.29C684.19 641.44 686.56 641.48 686.56 641.48L672.58 651.97Z" fill="#FFD6DB"/>
<path d="M672 652.37C672 652.37 674.16 656.09 669.07 661.37C666.68 663.82 661.63 662.71 656.94 660.83C651.335 658.549 646.237 655.181 641.94 650.92C633.16 642.31 615.36 624.16 613.59 616.92C612.59 612.74 616.11 611.58 621.11 611.83C621.54 616.05 622.62 621.83 625.26 624.9C629.76 630.12 642.61 647.7 658.68 647.9C663.613 647.831 668.456 649.222 672.6 651.9L672 652.37Z" fill="#C8A9B4"/>
<path opacity="0.1" d="M642.92 635.74C642.92 635.74 658.42 623.88 671.45 629.23C671.45 629.23 659.97 628.32 642.92 635.74Z" fill="black"/>
<path opacity="0.1" d="M660.49 632.9C660.49 632.9 675.31 637.54 678.26 637.58C681.21 637.62 663.02 631.76 660.49 632.9Z" fill="black"/>
<path opacity="0.1" d="M876.91 668.45C876.91 668.45 894.7 668.82 895.27 672.86C895.84 676.9 888.63 676.66 888.63 676.66L876.91 668.45Z" fill="black"/>
<path d="M911.43 720.68L911.49 721.32C911.49 721.32 915.32 721.44 916.89 727.75C917.63 730.75 914.41 734.02 910.77 736.75C906.406 739.934 901.454 742.221 896.2 743.48C885.54 746.08 863.4 751.04 857.1 749C853.45 747.81 854.24 744.58 856.78 740.9C860.08 736.12 866.36 730.59 869.7 727.9C875.59 723.1 875.7 711.75 875.7 711.75C875.7 711.75 870.47 706.99 872.38 701.82C874.29 696.65 889.53 704.52 889.53 704.52C892.43 699.04 901.44 701.52 905.17 704.24C908.9 706.96 910.04 705.18 910.04 705.18L911.43 720.68Z" fill="#FFD6DB"/>
<path d="M911.49 721.32C911.49 721.32 915.32 721.44 916.89 727.75C917.63 730.75 914.41 734.02 910.77 736.75C906.406 739.934 901.454 742.221 896.2 743.48C885.54 746.08 863.4 751.04 857.1 749C853.45 747.81 854.24 744.58 856.78 740.9C860.18 742.55 865.06 744.45 868.64 743.9C874.71 742.9 894.09 741.46 901.82 729.39C904.1 725.619 907.443 722.606 911.43 720.73L911.49 721.32Z" fill="#C8A9B4"/>
<path opacity="0.1" d="M885.19 735.56C885.19 735.56 883.49 718.23 893.68 710.85C893.68 710.85 887.59 719.14 885.19 735.56Z" fill="black"/>
<path opacity="0.1" d="M891.31 720.89C891.31 720.89 901.79 711.89 903.21 709.62C904.63 707.35 891.63 718.44 891.31 720.89Z" fill="black"/>
<path opacity="0.1" d="M868.11 463.06C868.11 463.06 854.6 470.06 844.77 467.29C834.94 464.52 868.11 463.06 868.11 463.06Z" fill="black"/>
<path opacity="0.1" d="M872.92 477.13C872.92 477.13 870.8 480.93 857.55 480C844.3 479.07 872.92 477.13 872.92 477.13Z" fill="black"/>
<g opacity="0.1">
<path opacity="0.1" d="M829.92 300.97L830.48 300.19C830.89 299.6 831.28 298.99 831.64 298.37C831.012 299.199 830.437 300.067 829.92 300.97V300.97Z" fill="black"/>
<path opacity="0.1" d="M824.32 313.97C821.69 314.32 819.32 312.19 818.22 309.85C817.12 307.51 816.84 304.85 815.82 302.5C815.523 301.61 814.887 300.873 814.05 300.45C812.43 299.83 810.82 301.31 809.74 302.64C808.66 303.97 807.09 305.46 805.45 304.88C804.55 304.442 803.839 303.692 803.45 302.77C801.77 299.77 800.05 296.6 799.94 293.18C800.035 291.495 800.035 289.805 799.94 288.12C799.52 285.17 797.31 282.71 794.76 281.05C792.21 279.39 789.28 278.35 786.51 277.05C785.044 276.455 783.721 275.556 782.63 274.41C781.63 273.21 779.29 273.34 779.91 271.92C780.37 271 780.91 270.11 781.41 269.23C780.259 270.854 779.226 272.558 778.32 274.33C777.71 275.75 780.03 275.62 781.04 276.82C782.135 277.966 783.461 278.866 784.93 279.46C787.768 280.603 790.525 281.939 793.18 283.46C795.73 285.13 797.93 287.59 798.36 290.54C798.438 292.223 798.422 293.909 798.31 295.59C798.42 299.02 800.14 302.17 801.81 305.19C802.203 306.109 802.913 306.858 803.81 307.3C805.45 307.88 807.02 306.39 808.1 305.06C809.18 303.73 810.79 302.25 812.41 302.87C813.247 303.293 813.883 304.03 814.18 304.92C815.18 307.29 815.48 309.92 816.58 312.27C817.68 314.62 820.04 316.74 822.68 316.39C823.47 316.249 824.217 315.928 824.863 315.453C825.51 314.978 826.039 314.361 826.41 313.65C826.57 313.35 826.711 313.039 826.83 312.72C826.133 313.372 825.26 313.806 824.32 313.97Z" fill="black"/>
</g>
<path opacity="0.1" d="M791.11 326.36C791.11 326.36 802.62 325.79 810.28 326.05C817.94 326.31 829.28 320.13 829.28 320.13" fill="black"/>
<path d="M315.16 406.48C314 400.58 303.09 401.53 295.16 403.05C294.49 403.18 293.84 403.31 293.22 403.45L293.79 401.08L290.06 399.54C282.73 396.515 275.061 394.39 267.22 393.21C255.74 391.49 237.54 387.8 226.35 380.65C216.18 374.15 212.1 372.27 209.26 370.52C209.26 370 209.26 369.52 209.26 368.99C209.26 366.09 209.09 363.43 208.87 361.06C208.662 358.881 208.24 356.727 207.61 354.63C205.23 346.74 199.87 344.21 194.5 339.27C190.983 335.957 186.997 333.18 182.67 331.03C183.11 328.418 183.876 325.871 184.95 323.45C185.1 323.08 185.26 322.72 185.41 322.35C185.41 322.3 185.41 322.26 185.48 322.21C185.64 321.84 185.8 321.47 185.96 321.12C189.841 319.01 193.083 315.895 195.347 312.102C197.612 308.309 198.814 303.977 198.83 299.56C198.83 296.336 198.189 293.144 196.947 290.17C195.704 287.195 193.883 284.496 191.59 282.23C191.203 281.85 190.803 281.48 190.39 281.12L191.55 280.74C194.02 279.86 196.71 277.44 195.99 275.38H195.63C195.612 275.234 195.579 275.089 195.53 274.95C194.433 274.913 193.379 274.516 192.53 273.82C191.38 272.4 191.03 270.27 188.92 268.28C188.446 267.773 187.92 267.317 187.35 266.92C185.812 265.883 184.081 265.166 182.26 264.81C182.41 264.91 182.57 264.99 182.72 265.1L183.03 265.34C178.84 264.34 174.11 264.49 170.13 262.78C169.173 262.355 168.253 261.85 167.38 261.27L167.9 261.41C165.75 260.17 163.82 258.58 161.59 257.41C160.354 256.787 159.048 256.314 157.7 256L158.7 256.59C152.785 255.221 146.569 256.218 141.38 259.37C135.23 262.99 130.87 268.8 127.63 274.91C122.184 285.167 119.529 296.674 119.93 308.28C120.13 313.88 121.03 319.69 118.93 324.95C117.19 329.35 113.54 332.85 111.36 337.07C102.95 353.39 118.44 374.59 108.95 390.37C105.52 396.08 99.38 399.86 95.2 405.11C91.02 410.36 89.51 418.85 95.08 422.79C99.08 425.63 104.77 424.71 109.54 426.15C108.726 431.068 106.336 435.588 102.73 439.03L101.95 438.88C101.77 439.05 101.6 439.23 101.41 439.39L102.15 439.58L101.87 439.85C107.088 441.361 112.451 442.313 117.87 442.69C122.68 443.03 127.77 442.85 131.95 440.57C134.067 439.37 135.935 437.774 137.45 435.87C137.45 436.87 137.52 437.75 137.58 438.66C137.728 442.34 138.251 445.996 139.14 449.57C143.77 466.36 129.14 479.52 129.14 479.52C125.556 486.817 123.871 494.899 124.24 503.02V503.02C124.511 507.937 125.522 512.785 127.24 517.4C127.38 517.77 127.51 518.13 127.65 518.48C127.92 519.18 128.21 519.86 128.49 520.48C128.92 521.48 129.35 522.35 129.78 523.17C130.06 523.73 130.34 524.25 130.61 524.73C131.548 526.458 132.625 528.107 133.83 529.66C135.31 528.653 136.79 527.703 138.27 526.81C138.27 527.38 138.27 527.98 138.27 528.6C138.35 534.79 137.73 542.6 137.73 542.6C137.73 542.6 133.09 559.17 132.63 563.94C132.17 568.71 130.38 598.21 130.38 598.21C130.38 598.21 124.12 617.28 112.54 628.85C100.96 640.42 103.54 673.56 103.54 673.56C103.54 673.56 95.43 701.47 98.21 702.83C98.6595 702.972 99.1373 703 99.6 702.91V704.04C94.6 707.51 90.8 710.32 90.8 710.32C90.8 710.32 89.41 733.24 87.55 737.67C85.69 742.1 89.87 747.32 89.87 747.32C89.87 747.32 131.12 746.18 134.71 745.95C136.36 745.85 141.86 744.06 147.55 741.53C152.44 740.44 167.2 734.69 172.55 729.34C173.343 728.63 173.983 727.766 174.43 726.8C176.98 720.44 153.92 725.21 147.66 725.21C141.4 725.21 140.71 720.44 137.81 716.81C134.91 713.18 137 707.17 137 707.17L136.4 690.17L139.15 689.06C139.15 689.06 142.86 674.53 148.88 667.5C154.9 660.47 165.57 633.68 165.8 632.32C166.03 630.96 166.26 628.46 170.66 622.32C175.06 616.18 179.38 603.06 179.38 603.06C179.38 603.06 189.38 571.74 196.99 555.63C201.66 545.78 204.26 528.33 205.57 516.23C207.009 516.623 208.425 517.097 209.81 517.65C209.81 517.65 211.95 503.94 212.81 488.29C213.321 480.296 213.257 472.275 212.62 464.29C211.4 451.29 203.81 426.12 204.26 402.7C206.09 403.88 207.87 405 209.47 406C209.47 405.41 209.54 404.83 209.58 404.24C213.68 406.79 216.64 408.54 216.64 408.54C216.64 408.54 241.2 422.15 262.75 422.38C284.3 422.61 288.01 425.1 288.01 425.1L289.37 419.48L291.3 419.12C300.38 417.38 316.49 413.25 315.16 406.48Z" fill="url(#paint1_linear)"/>
<path d="M198.53 276.34L197.41 275.51C197.613 275.741 197.769 276.01 197.87 276.3L198.53 276.34Z" fill="url(#paint2_linear)"/>
<path d="M196.01 275.38H196.68L196.05 274.91H196.22L195.1 274.09C195.298 274.319 195.451 274.584 195.55 274.87H195.8C195.891 275.031 195.962 275.202 196.01 275.38Z" fill="url(#paint3_linear)"/>
<path d="M165.22 316.42H147.39V344.25H165.22V316.42Z" fill="#965D7B"/>
<path opacity="0.1" d="M165.22 316.42H147.39V344.25H165.22V316.42Z" fill="black"/>
<path d="M102.4 711.47H118.61V689.63H102.4V711.47Z" fill="#E8F4FF"/>
<path d="M149.38 316.84C153.73 318.5 158.63 327.29 158.87 334.63C158.97 337.94 155.08 343.56 155.08 343.56L159.08 343.09C161.13 342.82 163.79 342.46 166.61 342.04C168.97 341.68 171.44 341.28 173.76 340.85C180.13 339.67 185.34 338.26 183.91 336.96C183.22 336.33 183.04 335.12 183.22 333.58C183.653 330.993 184.399 328.468 185.44 326.06C185.75 325.27 186.09 324.49 186.44 323.75C187.91 320.39 189.33 317.75 189.33 317.75C189.33 317.75 175.72 316.75 164.33 316.28C160.44 316.11 156.8 316 154.02 315.99H152.93C149.48 315.97 147.82 316.25 149.38 316.84Z" fill="#FFC1C7"/>
<path d="M206.56 504.18C206.56 504.18 204.56 540.43 197.11 556.41C189.66 572.39 180 603.47 180 603.47C180 603.47 175.72 616.53 171.44 622.61C167.16 628.69 166.94 631.17 166.71 632.52C166.48 633.87 156.13 660.44 150.27 667.42C144.41 674.4 140.82 688.81 140.82 688.81C140.82 688.81 115.15 699.61 112.45 698.26C109.75 696.91 117.63 669.26 117.63 669.26C117.63 669.26 115.15 636.38 126.41 624.9C137.67 613.42 143.75 594.51 143.75 594.51C143.75 594.51 145.55 565.23 146 560.51C146.45 555.79 150.95 539.34 150.95 539.34C150.95 539.34 152.3 522 150.73 518.63C149.16 515.26 206.56 504.18 206.56 504.18Z" fill="#575A89"/>
<path opacity="0.05" d="M206.56 504.18C206.56 504.18 204.56 540.43 197.11 556.41C189.66 572.39 180 603.47 180 603.47C180 603.47 175.72 616.53 171.44 622.61C167.16 628.69 166.94 631.17 166.71 632.52C166.48 633.87 156.13 660.44 150.27 667.42C144.41 674.4 140.82 688.81 140.82 688.81C140.82 688.81 115.15 699.61 112.45 698.26C109.75 696.91 117.63 669.26 117.63 669.26C117.63 669.26 115.15 636.38 126.41 624.9C137.67 613.42 143.75 594.51 143.75 594.51C143.75 594.51 145.55 565.23 146 560.51C146.45 555.79 150.95 539.34 150.95 539.34C150.95 539.34 152.3 522 150.73 518.63C149.16 515.26 206.56 504.18 206.56 504.18Z" fill="black"/>
<path d="M137.89 687.46L138.57 706.93C138.57 706.93 136.57 712.93 139.35 716.5C142.13 720.07 142.84 724.83 148.92 724.83C155 724.83 177.41 720.1 174.92 726.41C172.43 732.72 151.39 740.82 147.92 741.04C144.45 741.26 104.38 742.39 104.38 742.39C104.38 742.39 100.33 737.22 102.13 732.83C103.93 728.44 105.28 705.69 105.28 705.69C105.28 705.69 136.54 681.97 137.89 687.46Z" fill="#444053"/>
<path opacity="0.05" d="M138.06 687.29L138.73 706.77C138.73 706.77 136.73 712.77 139.52 716.33C142.31 719.89 143.01 724.67 149.09 724.67C155.17 724.67 177.57 719.94 175.09 726.24C172.61 732.54 151.56 740.65 148.09 740.88C144.62 741.11 104.52 742.23 104.52 742.23C104.52 742.23 100.52 737.05 102.27 732.66C104.02 728.27 105.38 705.53 105.38 705.53C105.38 705.53 136.71 681.77 138.06 687.29Z" fill="black"/>
<path d="M101.04 702.47C103.74 703.82 129.38 692.97 129.38 692.97C129.38 692.97 132.98 678.56 138.84 671.58C144.7 664.6 155.05 638.03 155.27 636.68C155.49 635.33 155.72 632.85 160 626.77C164.28 620.69 168.56 607.63 168.56 607.63C168.56 607.63 178.24 576.56 185.67 560.58C190.83 549.48 193.38 528.58 194.47 516.89C194.94 511.73 195.13 508.34 195.13 508.34C195.13 508.34 137.71 519.34 139.29 522.75C139.81 523.87 140.01 526.52 140.04 529.58C140.12 535.72 139.51 543.46 139.51 543.46C139.51 543.46 135.01 559.9 134.56 564.63C134.11 569.36 132.31 598.63 132.31 598.63C132.31 598.63 126.23 617.54 114.97 629.02C103.71 640.5 106.19 673.38 106.19 673.38C106.19 673.38 98.38 701.12 101.04 702.47Z" fill="#575A89"/>
<path opacity="0.1" d="M161.38 546.88C161.38 546.88 149.67 543.73 145.62 547.33C141.57 550.93 161.38 546.88 161.38 546.88Z" fill="black"/>
<path opacity="0.1" d="M161.16 561.74C161.16 561.74 142.69 557.74 142.47 563.54C142.25 569.34 161.16 561.74 161.16 561.74Z" fill="black"/>
<path opacity="0.1" d="M153.73 577.97C153.73 577.97 147.38 583.36 143.38 581.56C139.38 579.76 153.73 577.97 153.73 577.97Z" fill="black"/>
<path opacity="0.1" d="M136.62 607.22C136.62 607.22 149.45 611.95 146.52 616.91C143.59 621.87 141.34 622.54 140.22 621.18C139.1 619.82 136.62 607.22 136.62 607.22Z" fill="black"/>
<path d="M126.48 691.66L127.16 711.14C127.16 711.14 125.16 717.14 127.95 720.7C130.74 724.26 131.44 729.04 137.52 729.04C143.6 729.04 166 724.31 163.52 730.61C161.04 736.91 139.99 745.02 136.52 745.25C133.05 745.48 92.95 746.6 92.95 746.6C92.95 746.6 88.9 741.42 90.7 737.03C92.5 732.64 93.85 709.9 93.85 709.9C93.85 709.9 125.13 686.14 126.48 691.66Z" fill="#444053"/>
<path opacity="0.1" d="M119.95 717.78C119.95 717.78 119.39 721.61 107.34 717.89C95.29 714.17 119.95 717.78 119.95 717.78Z" fill="black"/>
<path opacity="0.1" d="M98 720.59C98 720.59 95.3 724.31 104.87 726C114.44 727.69 98 720.59 98 720.59Z" fill="black"/>
<path opacity="0.1" d="M100.59 717.66C100.59 717.66 110.05 725.88 112.97 725.88Z" fill="black"/>
<path opacity="0.1" d="M152.85 315.97C157.03 323.55 164.69 322.24 174.37 328.69C177.67 330.9 182.11 327.75 185.43 326.05C187.18 321.69 189.3 317.73 189.3 317.73C189.3 317.73 163.12 315.88 152.85 315.97Z" fill="black"/>
<path d="M149.83 302.36C149.83 307.213 151.269 311.957 153.965 315.993C156.661 320.028 160.493 323.173 164.977 325.031C169.46 326.889 174.394 327.375 179.154 326.429C183.914 325.483 188.287 323.147 191.719 319.716C195.151 316.285 197.489 311.913 198.437 307.154C199.385 302.394 198.901 297.46 197.045 292.976C195.189 288.492 192.045 284.658 188.011 281.961C183.977 279.263 179.233 277.822 174.38 277.82C171.152 277.804 167.954 278.428 164.969 279.655C161.984 280.883 159.271 282.69 156.989 284.972C154.706 287.253 152.898 289.965 151.669 292.949C150.441 295.934 149.815 299.132 149.83 302.36V302.36Z" fill="#FFC1C7"/>
<path opacity="0.1" d="M139.32 522.79C139.84 523.91 140.04 526.56 140.07 529.62C161.63 516.24 181.56 515.33 194.5 516.93C194.97 511.77 195.16 508.38 195.16 508.38C195.16 508.38 137.74 519.41 139.32 522.79Z" fill="black"/>
<path d="M126.45 504.22C126.916 513.746 130.133 522.933 135.71 530.67C174.71 503.67 209.57 518.74 209.57 518.74C209.57 518.74 211.64 505.14 212.45 489.61C212.937 481.685 212.877 473.736 212.27 465.82C211 452.11 202.74 424.73 204.32 400.3C205.02 389.55 209.19 379.53 209.04 371.24C209.04 368.37 208.88 365.73 208.67 363.38C208.468 361.219 208.056 359.082 207.44 357C205.14 349.16 199.92 346.66 194.71 341.76C191.304 338.478 187.428 335.721 183.21 333.58C174.75 329.45 166.21 329.45 158.87 334.63C157.497 335.605 156.212 336.7 155.03 337.9C153.521 339.442 152.152 341.115 150.94 342.9C150.73 343.19 150.54 343.49 150.35 343.78C149.27 345.47 148.27 348.53 147.35 352.32C143.96 366.57 141.99 391.06 141.99 391.06C141.99 391.06 138.16 420.65 139.35 440.35C139.494 444.001 140 447.629 140.86 451.18C145.37 467.84 131.18 480.9 131.18 480.9C127.701 488.163 126.075 496.175 126.45 504.22V504.22Z" fill="#BDD2E8"/>
<path d="M282.97 422.02C282.97 422.02 285.34 421.68 288.71 421.02C297.52 419.26 313.22 415.16 311.92 408.45C310.8 402.6 300.2 403.54 292.49 405.05C287.94 405.93 284.4 407.05 284.4 407.05L282.97 422.02Z" fill="#FFC1C7"/>
<path opacity="0.1" d="M166.38 375.61C171.11 379.21 182.82 389.12 191.82 396.1C196.89 400.03 203.96 404.67 209.17 407.99C209.87 397.23 210.36 386.99 210.22 378.74C206.68 375.88 205.5 372.16 200.16 365.93C190.7 354.93 173.81 351.07 173.81 351.07C162.58 348.59 161.68 371.97 166.38 375.61Z" fill="black"/>
<path opacity="0.1" d="M282.97 422.02C282.97 422.02 285.34 421.68 288.71 421.02L292.49 405.02C287.94 405.9 284.4 407.02 284.4 407.02L282.97 422.02Z" fill="black"/>
<path d="M173.84 349.27C173.84 349.27 190.73 353.09 200.19 364.13C209.65 375.17 206.19 370.13 225.63 382.82C236.5 389.91 254.18 393.57 265.34 395.27C272.966 396.451 280.419 398.563 287.53 401.56L291.15 403.08L285.52 426.97C285.52 426.97 281.92 424.49 260.98 424.27C240.04 424.05 216.17 410.53 216.17 410.53C216.17 410.53 200.86 401.3 191.85 394.32C182.84 387.34 171.14 377.41 166.38 373.81C161.62 370.21 162.58 346.79 173.84 349.27Z" fill="#E8F4FF"/>
<path opacity="0.1" d="M147.38 354.13C150.66 356.13 154.63 355.31 159.38 349.42C172.16 333.48 193.38 349.36 207.46 358.8C205.16 350.97 199.94 348.46 194.73 343.56C179.63 329.37 162.73 327.62 150.96 344.71C150.75 345 150.56 345.3 150.37 345.59C149.27 347.28 148.27 350.34 147.38 354.13Z" fill="black"/>
<path d="M147.38 352.33C150.66 354.33 154.63 353.51 159.38 347.62C159.495 347.464 159.619 347.313 159.75 347.17C161.578 344.916 163.939 343.152 166.62 342.04C168.89 341.134 171.329 340.728 173.77 340.85C185.04 341.21 197.91 350.59 207.46 357C205.16 349.16 199.94 346.66 194.73 341.76C191.324 338.478 187.448 335.721 183.23 333.58C174.77 329.45 166.23 329.45 158.89 334.63C157.517 335.605 156.232 336.7 155.05 337.9C153.541 339.442 152.172 341.115 150.96 342.9C150.75 343.19 150.56 343.49 150.37 343.78C149.27 345.48 148.27 348.54 147.38 352.33Z" fill="#575A89"/>
<path opacity="0.1" d="M126.45 502.42C126.916 511.946 130.133 521.133 135.71 528.87C174.71 501.87 209.57 516.94 209.57 516.94C209.57 516.94 211.64 503.34 212.45 487.81C197.6 487.68 155.31 488.03 141.12 495.81C136.428 498.428 131.52 500.639 126.45 502.42Z" fill="black"/>
<path d="M126.45 504.22C126.916 513.746 130.133 522.933 135.71 530.67C174.71 503.67 209.57 518.74 209.57 518.74C209.57 518.74 211.64 505.14 212.45 489.61C197.6 489.48 155.31 489.83 141.12 497.61C136.428 500.228 131.52 502.439 126.45 504.22Z" fill="#E8F4FF"/>
<path opacity="0.1" d="M198.61 279.32L197.52 278.5C197.718 278.729 197.871 278.994 197.97 279.28L198.61 279.32Z" fill="black"/>
<path opacity="0.1" d="M139.38 440.36C140.718 438.996 141.92 437.506 142.97 435.91C152.39 421.99 154.32 404.17 150.67 387.91C149.86 384.3 148.8 380.48 150.1 377C151.88 372.22 157.48 369.73 160.03 365.29C163.14 359.86 160.98 353.29 159.73 347.15C159.73 346.9 159.64 346.67 159.59 346.43C159.37 345.32 159.2 344.19 159.07 343.07C158.293 336.315 159.003 329.472 161.15 323.02C161.26 322.69 161.37 322.36 161.49 322.02C162.203 319.998 163.128 318.057 164.25 316.23C166.55 312.52 169.77 309.44 174.03 308.35C175.237 308.201 176.392 307.77 177.4 307.09C179.93 304.88 177.05 301.09 176.48 297.83C175.78 294.01 178.76 290.37 182.28 288.47C185.28 286.86 188.63 286.14 191.88 285.13C187.6 280.754 181.839 278.135 175.727 277.786C169.616 277.438 163.595 279.385 158.844 283.246C154.094 287.107 150.958 292.604 150.051 298.658C149.143 304.712 150.531 310.886 153.94 315.97H152.85C149.48 315.97 147.85 316.24 149.38 316.83C153.73 318.49 154.79 330.55 155.03 337.89C153.521 339.432 152.152 341.105 150.94 342.89C150.73 343.18 150.54 343.48 150.35 343.77C149.27 345.46 148.27 348.52 147.35 352.31C143.96 366.56 141.99 391.05 141.99 391.05C141.99 391.05 138.19 420.66 139.38 440.36Z" fill="black"/>
<path d="M195.72 277.6C197.55 279.77 194.56 282.7 191.84 283.68C188.07 285.05 184 285.68 180.48 287.61C176.96 289.54 173.99 293.15 174.67 296.97C175.26 300.22 178.13 303.97 175.6 306.23C174.59 306.908 173.436 307.343 172.23 307.5C165.87 309.12 161.84 315.17 159.69 321.16C156.884 328.973 156.228 337.397 157.79 345.55C159 351.88 161.46 358.77 158.23 364.41C155.68 368.86 150.08 371.34 148.3 376.12C147 379.6 148.06 383.42 148.87 387.03C152.52 403.27 150.59 421.09 141.17 435.03C139.353 437.986 136.866 440.474 133.91 442.29C129.85 444.54 124.91 444.72 120.23 444.39C114.957 444.01 109.74 443.061 104.67 441.56C108.654 438.03 111.291 433.227 112.13 427.97C107.49 426.53 101.98 427.45 98.08 424.63C92.67 420.73 94.13 412.3 98.19 407.09C102.25 401.88 108.19 398.09 111.56 392.47C120.77 376.81 105.72 355.77 113.89 339.59C116.01 335.39 119.56 331.92 121.25 327.59C123.25 322.37 122.4 316.59 122.2 311.05C121.81 299.553 124.39 288.15 129.69 277.94C132.83 271.88 137.07 266.12 143.04 262.53C149.01 258.94 156.95 257.85 163.14 261.07C165.88 262.49 168.14 264.65 170.99 265.89C176.45 268.28 183.37 266.99 188.17 270.44C192.97 273.89 190.78 278.32 196.81 278.44" fill="#965D7B"/>
<path opacity="0.1" d="M171.1 447.97C168.76 449.14 164.1 459.69 153.52 467.31C142.94 474.93 171.1 447.97 171.1 447.97Z" fill="black"/>
<path opacity="0.1" d="M175.79 426.87C175.79 426.87 162.31 455 146.49 459.1C130.67 463.2 175.79 426.87 175.79 426.87Z" fill="black"/>
<path opacity="0.1" d="M200.71 495.17C200.71 495.17 196.21 509.28 197.11 510.48C198.01 511.68 200.71 495.17 200.71 495.17Z" fill="black"/>
<path opacity="0.1" d="M192 495.77C192 495.77 187.5 509.88 188.4 511.08C189.3 512.28 192 495.77 192 495.77Z" fill="black"/>
<path opacity="0.1" d="M182.1 495.47C182.1 495.47 177.59 509.58 178.49 510.78C179.39 511.98 182.1 495.47 182.1 495.47Z" fill="black"/>
<path opacity="0.1" d="M134.01 506.64C134.01 506.64 136.9 521.16 138.27 521.78C139.64 522.4 134.01 506.64 134.01 506.64Z" fill="black"/>
<path opacity="0.1" d="M150.82 500.33C150.82 500.33 153.71 514.86 155.08 515.47C156.45 516.08 150.82 500.33 150.82 500.33Z" fill="black"/>
<path opacity="0.1" d="M141.22 504.54C141.22 504.54 144.11 519.06 145.48 519.68C146.85 520.3 141.22 504.54 141.22 504.54Z" fill="black"/>
<path opacity="0.1" d="M226.23 390.55C225.48 390.7 228.48 397.9 219.92 398.35C211.36 398.8 226.23 390.55 226.23 390.55Z" fill="black"/>
<path opacity="0.1" d="M283.72 408.71C283.72 408.71 280.42 415.61 275.01 416.96C269.6 418.31 283.72 408.71 283.72 408.71Z" fill="black"/>
<path opacity="0.1" d="M257.75 404.36C257.75 404.36 264.96 411.86 254.9 413.51C244.84 415.16 257.75 404.36 257.75 404.36Z" fill="black"/>
<path opacity="0.1" d="M200.56 375.54C200.56 375.54 185.85 371.03 183.56 374.33C181.27 377.63 200.56 375.54 200.56 375.54Z" fill="black"/>
<path opacity="0.1" d="M174.81 393.97C172.46 395.14 167.81 405.69 157.22 413.31C146.63 420.93 174.81 393.97 174.81 393.97Z" fill="black"/>
<g opacity="0.1">
<path opacity="0.1" d="M166.04 263.6C163.46 262.47 161.33 260.6 158.91 259.18C160.222 259.491 161.492 259.961 162.69 260.58C164.85 261.7 166.74 263.28 168.82 264.51C167.869 264.288 166.938 263.984 166.04 263.6Z" fill="black"/>
<path opacity="0.1" d="M196.38 277.97L195.73 277.92C195.632 277.638 195.483 277.377 195.29 277.15L196.38 277.97Z" fill="black"/>
<path opacity="0.1" d="M107.18 425.71C107.13 426.02 107.05 426.33 106.99 426.65C103.66 426.28 100.31 426.08 97.68 424.21C100.76 424.83 104.15 424.77 107.18 425.71Z" fill="black"/>
<path opacity="0.1" d="M115.28 442.11C119.95 442.45 124.9 442.27 128.96 440.01C131.916 438.197 134.403 435.713 136.22 432.76C145.64 418.83 147.57 401.01 143.92 384.76C143.11 381.15 142.05 377.32 143.34 373.85C145.13 369.07 150.73 366.58 153.28 362.14C156.51 356.5 154.05 349.61 152.83 343.28C151.273 335.126 151.929 326.704 154.73 318.89C156.88 312.89 160.91 306.89 167.28 305.22C168.485 305.065 169.639 304.634 170.65 303.96C173.17 301.74 170.3 297.96 169.72 294.7C169.03 290.88 172.01 287.23 175.52 285.34C179.03 283.45 183.11 282.78 186.88 281.41C189.29 280.54 191.88 278.14 191.21 276.1L191.85 276.15L190.77 275.33C190.963 275.557 191.113 275.818 191.21 276.1C186.01 275.65 187.86 271.47 183.21 268.1L182.76 267.81C184.55 268.164 186.251 268.874 187.76 269.9C192.4 273.24 190.55 277.43 195.76 277.9C196.46 279.9 193.84 282.34 191.44 283.21C187.67 284.58 183.6 285.21 180.08 287.14C176.56 289.07 173.59 292.68 174.27 296.5C174.86 299.75 177.73 303.5 175.2 305.76C174.19 306.438 173.037 306.873 171.83 307.03C165.47 308.65 161.44 314.7 159.29 320.69C156.482 328.51 155.823 336.939 157.38 345.1C158.6 351.43 161.06 358.32 157.83 363.96C155.28 368.41 149.68 370.89 147.9 375.67C146.6 379.15 147.66 382.97 148.47 386.58C152.12 402.82 150.19 420.64 140.77 434.58C138.951 437.534 136.464 440.021 133.51 441.84C129.45 444.09 124.51 444.27 119.83 443.94C114.557 443.56 109.34 442.611 104.27 441.11C104.46 440.95 104.62 440.77 104.8 440.6C108.251 441.361 111.754 441.866 115.28 442.11V442.11Z" fill="black"/>
</g>
<path d="M812.11 63.75C812.11 63.75 727.92 58.68 737.84 117.68C737.84 117.68 735.84 128.11 745.32 132.84C745.32 132.84 745.47 128.47 753.96 129.95C756.979 130.456 760.047 130.604 763.1 130.39C767.234 130.111 771.164 128.489 774.29 125.77V125.77C774.29 125.77 797.96 116 807.16 77.31C807.16 77.31 813.97 68.88 813.7 66.71L799.49 72.77C799.49 72.77 804.35 83.03 800.49 91.54C800.49 91.54 800.03 73.15 797.3 73.54C796.74 73.63 789.91 77.09 789.91 77.09C789.91 77.09 798.27 94.95 791.91 107.93C791.91 107.93 794.31 85.93 787.26 78.38L777.26 84.22C777.26 84.22 787.03 102.67 780.41 117.71C780.41 117.71 782.11 94.63 775.16 85.65L766.1 92.72C766.1 92.72 775.38 110.97 769.76 123.41C769.76 123.41 769.03 96.54 764.21 94.51C764.21 94.51 756.29 101.51 755.08 104.38C755.08 104.38 761.36 117.57 757.46 124.54C757.46 124.54 755.07 106.63 753.11 106.54C753.11 106.54 745.21 118.4 744.39 126.54C744.39 126.54 744.73 114.45 751.2 105.41C751.2 105.41 743.56 106.72 739.1 111.68C739.1 111.68 740.33 103.29 753.1 102.56C753.1 102.56 759.62 93.56 761.37 93.02C761.37 93.02 748.62 91.95 740.89 95.38C740.89 95.38 747.7 87.47 763.71 91.06L772.71 83.76C772.71 83.76 755.92 81.46 748.81 84C748.81 84 757 77 775.12 82.1L784.86 76.27C784.86 76.27 770.55 73.19 762.03 74.27C762.03 74.27 771.03 69.42 787.71 74.68L794.71 71.55C794.71 71.55 784.23 69.49 781.16 69.17C778.09 68.85 777.92 68 777.92 68C784.563 66.8867 791.384 67.645 797.62 70.19C797.62 70.19 812.38 64.69 812.11 63.75Z" fill="#FFC1C7"/>
<path d="M725.75 37.52C725.75 37.52 687.75 35.22 692.19 61.88C692.19 61.88 691.3 66.59 695.57 68.73C695.57 68.73 695.64 66.73 699.47 67.43C700.837 67.6596 702.227 67.7267 703.61 67.63C705.458 67.4883 707.211 66.7555 708.61 65.54V65.54C708.61 65.54 719.3 61.12 723.46 43.64C723.46 43.64 726.54 39.83 726.46 38.85L720.04 41.59C720.04 41.59 722.23 46.23 720.51 50.07C720.51 50.07 720.3 41.76 719.07 41.96C718.81 41.96 715.73 43.56 715.73 43.56C715.73 43.56 719.5 51.63 716.66 57.49C716.66 57.49 717.74 47.55 714.55 44.15L710.03 46.78C710.03 46.78 714.44 55.12 711.45 61.92C711.45 61.92 712.22 51.49 709.08 47.43L704.99 50.62C704.99 50.62 709.13 58.83 706.6 64.47C706.6 64.47 706.27 52.33 704.1 51.47C704.1 51.47 700.52 54.62 699.97 55.92C699.97 55.92 702.81 61.92 701.05 65.03C701.05 65.03 699.97 56.94 699.05 56.91C699.05 56.91 695.48 62.27 695.11 65.91C695.283 62.5119 696.345 59.2188 698.19 56.36C696.129 56.748 694.227 57.732 692.72 59.19C692.72 59.19 693.28 55.4 699.07 55.07C699.07 55.07 702.02 51.01 702.81 50.76C702.81 50.76 697.05 50.28 693.55 51.83C693.55 51.83 696.63 48.25 703.86 49.83L707.91 46.53C707.91 46.53 700.32 45.53 697.11 46.64C697.11 46.64 700.81 43.47 708.99 45.78L713.4 43.14C713.4 43.14 706.93 41.75 703.08 42.25C703.08 42.25 707.14 40.06 714.69 42.44L717.83 41.02C717.83 41.02 713.1 40.09 711.71 39.95C710.32 39.81 710.25 39.42 710.25 39.42C713.252 38.9206 716.334 39.2669 719.15 40.42C719.15 40.42 725.87 37.97 725.75 37.52Z" fill="#FFC1C7"/>
<path opacity="0.1" d="M1057.84 724.54C1072.71 724.54 1084.77 722.503 1084.77 719.99C1084.77 717.477 1072.71 715.44 1057.84 715.44C1042.97 715.44 1030.91 717.477 1030.91 719.99C1030.91 722.503 1042.97 724.54 1057.84 724.54Z" fill="#6C63FF"/>
<path opacity="0.1" d="M31.52 800.23C46.3931 800.23 58.45 798.193 58.45 795.68C58.45 793.167 46.3931 791.13 31.52 791.13C16.647 791.13 4.59003 793.167 4.59003 795.68C4.59003 798.193 16.647 800.23 31.52 800.23Z" fill="#6C63FF"/>
<path opacity="0.1" d="M187.85 805.93C202.723 805.93 214.78 803.893 214.78 801.38C214.78 798.867 202.723 796.83 187.85 796.83C172.977 796.83 160.92 798.867 160.92 801.38C160.92 803.893 172.977 805.93 187.85 805.93Z" fill="#6C63FF"/>
<path d="M998.9 775.55C1021.11 775.55 1039.11 772.506 1039.11 768.75C1039.11 764.994 1021.11 761.95 998.9 761.95C976.693 761.95 958.69 764.994 958.69 768.75C958.69 772.506 976.693 775.55 998.9 775.55Z" fill="#FFC1C7"/>
<path d="M1015.52 757.63C1017.35 756.134 1018.69 754.119 1019.35 751.85C1019.85 749.55 1018.87 746.79 1016.67 745.95C1014.21 745.01 1011.58 746.72 1009.59 748.44C1007.6 750.16 1005.31 752.13 1002.7 751.76C1004.04 750.545 1005.05 749.003 1005.62 747.283C1006.19 745.564 1006.3 743.727 1005.95 741.95C1005.83 741.213 1005.52 740.522 1005.04 739.95C1003.68 738.49 1001.2 739.12 999.57 740.27C994.37 743.92 992.92 750.99 992.89 757.34C992.37 755.05 992.81 752.66 992.79 750.34C992.77 748.02 992.14 745.34 990.15 744.12C988.927 743.443 987.548 743.098 986.15 743.12C983.81 743.03 981.21 743.27 979.62 744.98C977.62 747.1 978.15 750.66 979.87 752.98C981.59 755.3 984.22 756.79 986.64 758.4C988.576 759.554 990.227 761.13 991.47 763.01C991.62 763.273 991.74 763.551 991.83 763.84H1006.49C1009.76 762.181 1012.8 760.092 1015.52 757.63V757.63Z" fill="#FFC1C7"/>
<path d="M44.08 673.78C44.08 673.78 49.57 680.96 41.55 691.78C33.53 702.6 26.9 711.78 29.55 718.54C29.55 718.54 41.67 698.4 51.55 698.12C61.43 697.84 54.93 685.89 44.08 673.78Z" fill="#FFC1C7"/>
<path opacity="0.1" d="M44.08 673.78C44.5612 674.471 44.9385 675.229 45.2 676.03C54.82 687.33 59.95 697.88 50.7 698.15C42.09 698.39 31.75 713.8 29.28 717.69C29.36 717.98 29.46 718.28 29.57 718.57C29.57 718.57 41.69 698.43 51.57 698.15C61.45 697.87 54.93 685.89 44.08 673.78Z" fill="black"/>
<path d="M54.29 682.97C54.29 685.5 54.01 687.55 53.66 687.55C53.31 687.55 53.03 685.55 53.03 682.97C53.03 680.39 53.38 681.64 53.73 681.64C54.08 681.64 54.29 680.4 54.29 682.97Z" fill="#FFD037"/>
<path d="M57.8 685.97C55.58 687.18 53.64 687.91 53.47 687.61C53.3 687.31 54.97 686.07 57.19 684.86C59.41 683.65 58.54 684.53 58.7 684.86C58.86 685.19 60.02 684.74 57.8 685.97Z" fill="#FFD037"/>
<path d="M15.06 673.78C15.06 673.78 9.57001 680.96 17.6 691.78C25.63 702.6 32.25 711.78 29.6 718.54C29.6 718.54 17.49 698.4 7.60001 698.12C-2.28999 697.84 4.22001 685.89 15.06 673.78Z" fill="#FFC1C7"/>
<path opacity="0.1" d="M15.06 673.78C14.5833 674.474 14.2063 675.231 13.94 676.03C4.32002 687.33 -0.799979 697.88 8.44002 698.15C17.06 698.39 27.44 713.8 29.87 717.69C29.78 717.98 29.69 718.28 29.57 718.57C29.57 718.57 17.46 698.43 7.57003 698.15C-2.31997 697.87 4.22002 685.89 15.06 673.78Z" fill="black"/>
<path d="M4.84998 682.97C4.84998 685.5 5.12997 687.55 5.48997 687.55C5.84997 687.55 6.11998 685.55 6.11998 682.97C6.11998 680.39 5.75997 681.64 5.40997 681.64C5.05997 681.64 4.84998 680.4 4.84998 682.97Z" fill="#FFD037"/>
<path d="M1.37999 685.97C3.59999 687.18 5.52999 687.91 5.69999 687.61C5.86999 687.31 4.19999 686.07 1.97999 684.86C-0.240009 683.65 0.639993 684.53 0.469993 684.86C0.299993 685.19 -0.870008 684.74 1.37999 685.97Z" fill="#FFD037"/>
<path d="M6.59998 717.63C6.59998 717.63 21.96 717.16 26.6 713.86C31.24 710.56 50.22 706.63 51.38 711.97C52.54 717.31 74.47 738.26 57.12 738.4C39.77 738.54 16.83 735.7 12.21 732.88C7.58998 730.06 6.59998 717.63 6.59998 717.63Z" fill="#A8A8A8"/>
<path opacity="0.2" d="M57.38 736.51C40.04 736.65 17.09 733.81 12.47 730.99C8.95 728.85 7.55 721.16 7.08 717.61H6.57001C6.57001 717.61 7.57 730 12.16 732.81C16.75 735.62 39.73 738.47 57.07 738.33C62.07 738.33 63.81 736.51 63.71 733.87C63.05 735.48 61.14 736.48 57.38 736.51Z" fill="black"/>
</g>
<defs>
<linearGradient id="paint0_linear" x1="765.2" y1="749.98" x2="765.2" y2="257.32" gradientUnits="userSpaceOnUse">
<stop stop-color="#808080" stop-opacity="0.25"/>
<stop offset="0.54" stop-color="#808080" stop-opacity="0.12"/>
<stop offset="1" stop-color="#808080" stop-opacity="0.1"/>
</linearGradient>
<linearGradient id="paint1_linear" x1="59120.1" y1="390543" x2="59120.1" y2="149134" gradientUnits="userSpaceOnUse">
<stop stop-color="#808080" stop-opacity="0.25"/>
<stop offset="0.54" stop-color="#808080" stop-opacity="0.12"/>
<stop offset="1" stop-color="#808080" stop-opacity="0.1"/>
</linearGradient>
<linearGradient id="paint2_linear" x1="483.67" y1="543.903" x2="483.67" y2="543.214" gradientUnits="userSpaceOnUse">
<stop stop-color="#808080" stop-opacity="0.25"/>
<stop offset="0.54" stop-color="#808080" stop-opacity="0.12"/>
<stop offset="1" stop-color="#808080" stop-opacity="0.1"/>
</linearGradient>
<linearGradient id="paint3_linear" x1="595.646" y1="690.066" x2="595.646" y2="688.415" gradientUnits="userSpaceOnUse">
<stop stop-color="#808080" stop-opacity="0.25"/>
<stop offset="0.54" stop-color="#808080" stop-opacity="0.12"/>
<stop offset="1" stop-color="#808080" stop-opacity="0.1"/>
</linearGradient>
<clipPath id="clip0">
<rect width="1084.77" height="805.94" fill="white"/>
</clipPath>
</defs>
</svg>
